<?xml version="1.0" encoding="UTF-8"?>
<svg xmlns="http://www.w3.org/2000/svg" viewBox="0 0 1000 1000">
  <defs>
    <style>
      .cls-1 {
        fill: none;
        stroke: #231f20;
        stroke-miterlimit: 10;
        stroke-width: 10px;
      }
    </style>
  </defs>
  <g id="Base_Circle">
    <path id="Circle" class="cls-1" d="M471.2,65.73c272-17.75,493.98,204.97,462.47,478.37-24.31,228.71-227.2,407.9-458.45,393.25C150.42,918.01-40.78,554.87,122.98,275.13c71.38-122.07,207.25-201.1,348.02-209.39h.2Z"/>
  </g>
  <g id="Arrow_Layer">
    <path id="Arrow_Down" class="cls-1" d="M515.62,740.23l132.73-126.06c17.17-13.54,36.41,7.5,21.59,23.54-36.9,31.98-115.3,106.11-151.13,140.17-10.43,9.91-26.77,9.94-37.24.07-34.75-32.76-109.64-103.06-151.53-140.24-14.46-16.55,2.71-36.19,20.55-24.45l133.78,126.96V237.3c0-13.62,31.25-13.62,31.25,0v502.93Z"/>
  </g>
</svg>