<?xml version="1.0" encoding="UTF-8"?>
<svg id="Layer_1" data-name="Layer 1" xmlns="http://www.w3.org/2000/svg" xmlns:xlink="http://www.w3.org/1999/xlink" viewBox="0 0 2048 500">
  <defs>
    <style>
      .cls-1 {
        fill: #18231d;
        filter: url(#drop-shadow-4);
      }

      .cls-2 {
        fill: #c1c7c3;
        filter: url(#drop-shadow-15);
      }

      .cls-3 {
        fill: #d5dad7;
        filter: url(#drop-shadow-16);
      }

      .cls-4 {
        fill: #6f7e75;
        filter: url(#drop-shadow-11);
      }

      .cls-5 {
        fill: #231f20;
      }

      .cls-6 {
        fill: #97a39c;
        filter: url(#drop-shadow-13);
      }

      .cls-7 {
        fill: #27382e;
        filter: url(#drop-shadow-7);
      }

      .cls-8 {
        fill: #0d110f;
        filter: url(#drop-shadow-1);
      }

      .cls-9 {
        fill: #223128;
        filter: url(#drop-shadow-6);
      }

      .cls-10 {
        fill: #455a4d;
        filter: url(#drop-shadow-9);
      }

      .cls-11 {
        fill: #101713;
        filter: url(#drop-shadow-2);
      }

      .cls-12 {
        fill: #1d2a22;
        filter: url(#drop-shadow-5);
      }

      .cls-13, .cls-14 {
        fill: #2c3f34;
      }

      .cls-15 {
        fill: #5a6b61;
        filter: url(#drop-shadow-10);
      }

      .cls-16 {
        fill: #131c17;
        filter: url(#drop-shadow-3);
      }

      .cls-14 {
        filter: url(#drop-shadow-8);
      }

      .cls-17 {
        fill: #839088;
        filter: url(#drop-shadow-12);
      }

      .cls-18 {
        fill: #080a09;
      }

      .cls-19 {
        fill: #acb5b0;
        filter: url(#drop-shadow-14);
      }
    </style>
    <filter id="drop-shadow-1" x="-49.32" y="-62.52" width="1097.52" height="606.24" filterUnits="userSpaceOnUse">
      <feOffset dx="-3" dy="-5"/>
      <feGaussianBlur result="blur" stdDeviation="13"/>
      <feFlood flood-color="#e5e5e5" flood-opacity=".75"/>
      <feComposite in2="blur" operator="in"/>
      <feComposite in="SourceGraphic"/>
    </filter>
    <filter id="drop-shadow-2" x="71.88" y="-62.52" width="976.32" height="518.16" filterUnits="userSpaceOnUse">
      <feOffset dx="-3" dy="-5"/>
      <feGaussianBlur result="blur-2" stdDeviation="13"/>
      <feFlood flood-color="#e5e5e5" flood-opacity=".75"/>
      <feComposite in2="blur-2" operator="in"/>
      <feComposite in="SourceGraphic"/>
    </filter>
    <filter id="drop-shadow-3" x="246.84" y="-62.52" width="801.36" height="420.72" filterUnits="userSpaceOnUse">
      <feOffset dx="-3" dy="-5"/>
      <feGaussianBlur result="blur-3" stdDeviation="13"/>
      <feFlood flood-color="#fff" flood-opacity=".75"/>
      <feComposite in2="blur-3" operator="in"/>
      <feComposite in="SourceGraphic"/>
    </filter>
    <filter id="drop-shadow-4" x="488.76" y="-62.52" width="559.44" height="373.2" filterUnits="userSpaceOnUse">
      <feOffset dx="-3" dy="-5"/>
      <feGaussianBlur result="blur-4" stdDeviation="13"/>
      <feFlood flood-color="#fff" flood-opacity=".75"/>
      <feComposite in2="blur-4" operator="in"/>
      <feComposite in="SourceGraphic"/>
    </filter>
    <filter id="drop-shadow-5" x="650.28" y="-62.52" width="398.88" height="373.2" filterUnits="userSpaceOnUse">
      <feOffset dx="-2" dy="-5"/>
      <feGaussianBlur result="blur-5" stdDeviation="13"/>
      <feFlood flood-color="#fff" flood-opacity=".75"/>
      <feComposite in2="blur-5" operator="in"/>
      <feComposite in="SourceGraphic"/>
    </filter>
    <filter id="drop-shadow-6" x="801.72" y="-62.52" width="248.4" height="373.2" filterUnits="userSpaceOnUse">
      <feOffset dx="-1" dy="-5"/>
      <feGaussianBlur result="blur-6" stdDeviation="13"/>
      <feFlood flood-color="#fff" flood-opacity=".75"/>
      <feComposite in2="blur-6" operator="in"/>
      <feComposite in="SourceGraphic"/>
    </filter>
    <filter id="drop-shadow-7" x="908.28" y="-62.52" width="175.92" height="373.2" filterUnits="userSpaceOnUse">
      <feOffset dx="1" dy="-5"/>
      <feGaussianBlur result="blur-7" stdDeviation="13"/>
      <feFlood flood-color="#fff" flood-opacity=".75"/>
      <feComposite in2="blur-7" operator="in"/>
      <feComposite in="SourceGraphic"/>
    </filter>
    <filter id="drop-shadow-8" x="966.12" y="-62.52" width="269.28" height="373.2" filterUnits="userSpaceOnUse">
      <feOffset dx="1" dy="-5"/>
      <feGaussianBlur result="blur-8" stdDeviation="13"/>
      <feFlood flood-color="#000" flood-opacity=".75"/>
      <feComposite in2="blur-8" operator="in"/>
      <feComposite in="SourceGraphic"/>
    </filter>
    <filter id="drop-shadow-9" x="977.88" y="-62.52" width="1143.36" height="606.24" filterUnits="userSpaceOnUse">
      <feOffset dx="5" dy="-5"/>
      <feGaussianBlur result="blur-9" stdDeviation="13"/>
      <feFlood flood-color="#000" flood-opacity=".75"/>
      <feComposite in2="blur-9" operator="in"/>
      <feComposite in="SourceGraphic"/>
    </filter>
    <filter id="drop-shadow-10" x="984.96" y="4.32" width="1049.76" height="537.36" filterUnits="userSpaceOnUse">
      <feOffset dx="9" dy="-4"/>
      <feGaussianBlur result="blur-10" stdDeviation="12"/>
      <feFlood flood-color="#231f20" flood-opacity=".75"/>
      <feComposite in2="blur-10" operator="in"/>
      <feComposite in="SourceGraphic"/>
    </filter>
    <filter id="drop-shadow-11" x="986.88" y="132" width="893.76" height="410.64" filterUnits="userSpaceOnUse">
      <feOffset dx="11" dy="-3"/>
      <feGaussianBlur result="blur-11" stdDeviation="12"/>
      <feFlood flood-color="#000" flood-opacity=".75"/>
      <feComposite in2="blur-11" operator="in"/>
      <feComposite in="SourceGraphic"/>
    </filter>
    <filter id="drop-shadow-12" x="986.88" y="223.2" width="653.52" height="320.4" filterUnits="userSpaceOnUse">
      <feOffset dx="11" dy="-2"/>
      <feGaussianBlur result="blur-12" stdDeviation="12"/>
      <feFlood flood-color="#000" flood-opacity=".75"/>
      <feComposite in2="blur-12" operator="in"/>
      <feComposite in="SourceGraphic"/>
    </filter>
    <filter id="drop-shadow-13" x="986.88" y="239.52" width="460.32" height="305.28" filterUnits="userSpaceOnUse">
      <feOffset dx="11" dy="-1"/>
      <feGaussianBlur result="blur-13" stdDeviation="12"/>
      <feFlood flood-color="#000" flood-opacity=".75"/>
      <feComposite in2="blur-13" operator="in"/>
      <feComposite in="SourceGraphic"/>
    </filter>
    <filter id="drop-shadow-14" x="986.88" y="239.52" width="319.44" height="305.28" filterUnits="userSpaceOnUse">
      <feOffset dx="11" dy="-1"/>
      <feGaussianBlur result="blur-14" stdDeviation="12"/>
      <feFlood flood-color="#000" flood-opacity=".75"/>
      <feComposite in2="blur-14" operator="in"/>
      <feComposite in="SourceGraphic"/>
    </filter>
    <filter id="drop-shadow-15" x="986.88" y="239.52" width="196.32" height="305.28" filterUnits="userSpaceOnUse">
      <feOffset dx="11" dy="-1"/>
      <feGaussianBlur result="blur-15" stdDeviation="12"/>
      <feFlood flood-color="#000" flood-opacity=".75"/>
      <feComposite in2="blur-15" operator="in"/>
      <feComposite in="SourceGraphic"/>
    </filter>
    <filter id="drop-shadow-16" x="920.64" y="246.48" width="138.72" height="281.28" filterUnits="userSpaceOnUse">
      <feOffset dx="6" dy="-6"/>
      <feGaussianBlur result="blur-16" stdDeviation="8"/>
      <feFlood flood-color="#000" flood-opacity=".75"/>
      <feComposite in2="blur-16" operator="in"/>
      <feComposite in="SourceGraphic"/>
    </filter>
  </defs>
  <g id="Spirals">
    <path class="cls-18" d="M1012.04,276.68c-2.14,27.94-6.38,55.22-12.55,81.69t-.01.02c-12.6,54.16-33.28,104.97-60.6,151.2h-159.64c1.69-.87,3.37-1.74,5.05-2.63,1.95-1.02,3.9-2.07,5.83-3.13.07-.03.14-.06.21-.12,1.83-.98,3.64-1.99,5.45-2.99.19-.11.37-.21.55-.31,1.71-.96,3.41-1.93,5.11-2.9,3.79-2.18,7.57-4.4,11.31-6.67.73-.44,1.46-.89,2.18-1.34,1.26-.76,2.5-1.53,3.75-2.32.3-.17.58-.35.87-.54,1.78-1.12,3.56-2.25,5.33-3.39,1.64-1.05,3.26-2.11,4.88-3.18.49-.32.97-.63,1.46-.96,1.64-1.09,3.27-2.19,4.9-3.29,1.72-1.17,3.45-2.35,5.16-3.56.24-.16.48-.33.71-.5,1.57-1.09,3.14-2.2,4.69-3.32.24-.17.48-.34.71-.5,1.75-1.27,3.51-2.53,5.25-3.82,0,0,.01,0,.01-.01,46.64-34.33,88.22-76.58,122.56-126.05h0s.01-.03.02-.04c13.43-19.37,25.75-39.83,36.82-61.35Z"/>
    <path class="cls-18" d="M252.13,490.9c10.83,6.57,21.97,12.81,33.4,18.69H9.53c-25.57-43.25-45.24-90.27-57.98-139.86-14.34-55.81-19.91-114.91-15.26-175.56C-58.03,120.13-37.65,50.74-5.67-11.37c-4.53,59.4.9,118.73,15.53,175.57,21.62,83.99,63.31,162.57,122.61,228.04,3.97,4.38,8.02,8.7,12.14,12.97,1.37,1.43,2.77,2.84,4.16,4.25,5.58,5.64,11.28,11.15,17.13,16.56,2.91,2.69,5.87,5.36,8.86,8h.01c14.95,13.22,30.76,25.69,47.38,37.34,7.42,5.21,15.01,10.23,22.75,15.09,2.39,1.51,4.79,3,7.21,4.46Z"/>
    <path class="cls-8" d="M1012.04,276.68c-11.08,21.52-23.39,41.99-36.82,61.35-.01.01-.01.02-.02.03h0c-34.34,49.47-75.92,91.73-122.56,126.06,0,.01-.01.01-.01.01-1.74,1.29-3.5,2.56-5.25,3.82-.23.16-.46.33-.71.5-1.55,1.12-3.12,2.23-4.69,3.32-.23.17-.46.34-.71.5-1.71,1.2-3.44,2.39-5.16,3.56-1.63,1.11-3.26,2.21-4.9,3.29-.49.33-.97.64-1.46.96-1.62,1.07-3.24,2.13-4.88,3.18-1.77,1.14-3.55,2.27-5.33,3.39-.29.19-.57.37-.87.54-1.25.79-2.49,1.56-3.75,2.32-.72.45-1.45.9-2.18,1.34-3.74,2.27-7.52,4.5-11.31,6.67-1.7.97-3.4,1.94-5.11,2.9-.18.1-.36.2-.55.31-1.81,1-3.62,2.01-5.45,2.99-.07.05-.14.08-.21.12-1.93,1.06-3.88,2.1-5.83,3.13-1.68.89-3.36,1.76-5.05,2.63h-493.71c-11.44-5.88-22.57-12.12-33.4-18.69-2.42-1.46-4.83-2.95-7.21-4.46-7.74-4.86-15.32-9.88-22.75-15.09-16.62-11.65-32.43-24.12-47.38-37.33h-.01c-2.99-2.65-5.95-5.32-8.86-8.02-5.85-5.41-11.55-10.92-17.13-16.56-1.39-1.4-2.79-2.82-4.16-4.25-4.13-4.27-8.17-8.59-12.14-12.97C73.17,326.78,31.48,248.19,9.87,164.2-4.77,107.36-10.2,48.03-5.67-11.37c.18-2.34.37-4.69.59-7.04h119.15c2.16,11.62,4.72,23.17,7.66,34.65,21.07,82.36,61.96,160.86,122.9,228.06,1.65,1.82,3.31,3.62,4.98,5.43,48.79,52.38,105.57,92.87,166.7,121.33,54.09,25.2,111.58,40.98,169.97,47.26,61.61,6.65,124.21,2.72,184.86-11.9h.01c68.28-16.43,134.07-46.41,193.18-90.09,16.45-12.14,32.39-25.36,47.71-39.63Z"/>
    <path class="cls-11" d="M1012.04,276.68c-15.32,14.28-31.26,27.49-47.71,39.63-59.11,43.68-124.9,73.66-193.18,90.09h-.01c-60.65,14.63-123.25,18.55-184.86,11.9-58.39-6.27-115.88-22.06-169.97-47.26-61.13-28.46-117.91-68.95-166.7-121.33-1.68-1.81-3.34-3.61-4.98-5.43-60.94-67.19-101.83-145.7-122.9-228.06-2.94-11.48-5.49-23.03-7.66-34.65h174.88c3.13,7.99,6.47,15.96,10.03,23.88,23.83,53.08,55.18,100.42,92.22,141.34,48.87,53.97,107.65,96.75,172.16,126.75,53.34,24.83,110.6,40.91,169.42,47.36,60.7,6.66,123.07,3.06,184.49-11.79h.02c31.96-7.73,63.66-18.5,94.75-32.45Z"/>
    <path class="cls-16" d="M1012.04,276.68c-31.09,13.95-62.79,24.72-94.75,32.45h-.02c-61.42,14.85-123.79,18.45-184.49,11.79-58.82-6.45-116.08-22.54-169.42-47.36-64.51-30-123.29-72.78-172.16-126.75-37.05-40.92-68.39-88.26-92.22-141.34-3.56-7.92-6.91-15.88-10.03-23.88h242.03c21.86,42.95,49.31,82.58,81.38,117.94,47.86,52.78,106.05,96.04,171.35,126.6,52.43,24.53,109.45,40.87,169.42,47.38h.02c19.36,2.1,38.99,3.18,58.89,3.18Z"/>
    <path class="cls-1" d="M1012.04,276.68c-19.91,0-39.54-1.08-58.89-3.18h-.02c-59.97-6.52-116.99-22.85-169.42-47.38-65.3-30.55-123.49-73.82-171.35-126.6-32.07-35.36-59.52-74.99-81.38-117.94h160.4c23.29,53.4,55.16,102.97,94.5,146.51,47.09,52.13,104.89,95.6,171.57,126.65,17.59,8.21,35.8,15.53,54.59,21.93Z"/>
    <path class="cls-12" d="M1012.04,276.68c-18.79-6.4-36.99-13.73-54.59-21.93-66.68-31.05-124.48-74.52-171.57-126.65-39.35-43.54-71.22-93.11-94.5-146.51h150.52c1.77,8.72,3.77,17.41,5.98,26.05,21.14,82.71,62.07,161.14,122.36,227.64,13.02,14.38,26.96,28.22,41.8,41.41Z"/>
    <path class="cls-9" d="M1012.04,276.68c-14.84-13.19-28.78-27.02-41.8-41.41-60.29-66.5-101.22-144.93-122.36-227.64-2.21-8.64-4.2-17.33-5.98-26.05h105.72c-3.97,56.57.94,114.14,15.4,170.58h0s.01.02.01.03c10.86,42.44,27.11,84.25,49.01,124.48Z"/>
    <path class="cls-7" d="M1012.04,276.68c-21.9-40.23-38.15-82.04-49.01-124.48,0-.01-.01-.01-.01-.02h0c-14.46-56.44-19.37-114.02-15.4-170.59h96.45c-20.78,50.83-33.94,105.17-38.31,161.38v.04c-3.4,43.69-1.49,88.5,6.28,133.67Z"/>
    <path class="cls-14" d="M1044.07-18.42h151.33c-8.73,7.15-17.24,14.57-25.52,22.27-44.83,41.65-82.86,91.19-111.71,147.1h0c-20.11,38.98-35.76,81.05-46.13,125.72-7.77-45.17-9.68-89.98-6.28-133.67v-.04c4.37-56.21,17.53-110.55,38.31-161.38Z"/>
    <path class="cls-13" d="M2069.28,307.25c-10.12-58.7-29.89-114.89-57.98-166.44-29.67-54.47-68.63-103.74-115.3-145.31-5.32-4.74-10.75-9.39-16.27-13.92h163.6c14.4,35.43,25.24,72.94,31.99,112.18,12.59,73.18,9.8,145.43-6.04,213.48Z"/>
    <path class="cls-10" d="M2065.44,509.59h-75.78c-.32-2.29-.65-4.58-1-6.86-.15-.97-.3-1.95-.45-2.93-.16-.99-.32-1.99-.49-2.98-.23-1.42-.46-2.83-.71-4.25-9.98-57.94-29.37-114.25-57.71-166.44-29.17-53.69-67.82-103.01-115.47-145.28-16.02-14.21-33.06-27.63-51.11-40.14-42.18-29.24-87.05-51.63-133.32-67.42-56.7-19.37-115.49-28.81-173.95-28.77-75.93.05-151.29,16.1-220.77,47.16-53,23.7-102.59,56.14-146.41,96.9-27.96,26-53.58,55.4-76.23,88.07,10.37-44.67,26.02-86.74,46.13-125.71h0c28.85-55.93,66.88-105.46,111.71-147.11,8.28-7.7,16.79-15.12,25.52-22.27h684.34c5.52,4.53,10.95,9.18,16.27,13.92,46.67,41.56,85.62,90.84,115.3,145.31,28.09,51.54,47.86,107.73,57.98,166.44h0c11.26,65.33,10.59,133.74-3.84,202.34Z"/>
    <path class="cls-15" d="M1989.66,509.59h-156.23c-7.76-19.33-16.73-38.34-26.89-56.96-11.73-21.51-25.08-42.47-40.05-62.74-22.64-30.64-47.9-58.18-75.25-82.55-54.66-48.71-117.64-84.77-184.64-107.52-55.98-19.02-114.77-28.74-173.84-28.8-74.62-.07-149.69,15.28-220.14,46.83-34.86,15.61-68.6,35.19-100.58,58.82,22.65-32.67,48.27-62.07,76.23-88.07,43.81-40.76,93.4-73.2,146.41-96.9,69.49-31.06,144.84-47.11,220.77-47.16,58.46-.04,117.25,9.4,173.95,28.77,46.27,15.79,91.14,38.18,133.32,67.42,18.05,12.51,35.09,25.93,51.11,40.14,47.65,42.26,86.3,91.59,115.47,145.28,28.34,52.19,47.73,108.5,57.71,166.44.24,1.42.48,2.83.71,4.25.17.99.33,1.99.49,2.98.16.97.31,1.94.45,2.93.35,2.28.69,4.57,1,6.86Z"/>
    <path class="cls-4" d="M1833.43,509.59h-240.1c-26.85-41.88-59.16-79.4-95.69-111.8-53.67-47.66-116.44-84.28-184.43-107.51h-.01c-54.94-18.8-113.3-28.85-173.02-28.91h-.1c-42.25-.04-85.17,4.91-128.05,15.31,31.98-23.63,65.72-43.21,100.58-58.82,70.45-31.55,145.52-46.91,220.14-46.83,59.07.05,117.86,9.78,173.84,28.8,67,22.76,129.99,58.81,184.64,107.52,27.35,24.37,52.61,51.91,75.25,82.55,14.97,20.26,28.32,41.23,40.05,62.74,10.16,18.62,19.12,37.64,26.89,56.96Z"/>
    <path class="cls-17" d="M1593.33,509.59h-193.26c-24.95-36.65-54.35-70.17-87.52-99.72h-.01c-52.63-46.9-114.76-83.8-183.66-107.32-.01,0-.01-.01-.02,0-37.11-12.68-76.19-21.48-116.82-25.87,42.89-10.4,85.8-15.35,128.05-15.31h.1c59.72.06,118.07,10.12,173.02,28.91h.01c68,23.23,130.77,59.86,184.43,107.51,36.53,32.4,68.83,69.92,95.69,111.8Z"/>
    <path class="cls-6" d="M1400.07,509.59h-140.98c-.3-.58-.61-1.15-.92-1.72h0c-29.27-53.89-67.83-103.07-114.69-144.83-38.41-34.25-82.4-63.52-131.44-86.36,40.63,4.39,79.71,13.19,116.82,25.87.01-.01.01,0,.02,0,68.91,23.53,131.03,60.43,183.66,107.32h.01c33.17,29.55,62.57,63.07,87.52,99.72Z"/>
    <path class="cls-19" d="M1259.09,509.59h-122.94c-10.81-43.98-27.27-86.93-49.41-127.7,0-.01-.01-.01-.01-.02-20.16-37.14-45.05-72.49-74.69-105.19,49.04,22.84,93.04,52.11,131.44,86.36,46.87,41.77,85.42,90.94,114.69,144.82h0c.31.58.62,1.15.92,1.73Z"/>
    <path class="cls-2" d="M1020.04,509.59c11.44-61.24,12.36-125.25,1.28-189.56h0c-2.48-14.46-5.57-28.91-9.28-43.36,29.64,32.7,54.53,68.05,74.69,105.19,0,.01.01.01.01.02,22.14,40.77,38.6,83.72,49.41,127.7h-116.11Z"/>
    <path class="cls-5" d="M-48.45,369.73c12.74,49.59,32.41,96.6,57.98,139.86h-50.33c-8.81-47.05-11.16-93.99-7.65-139.86Z"/>
    <path class="cls-3" d="M1020.04,509.59h-81.17c27.33-46.23,48.01-97.04,60.6-151.2t.01-.02c6.17-26.47,10.4-53.75,12.55-81.69,3.72,14.45,6.8,28.9,9.28,43.35h0c11.08,64.31,10.16,128.33-1.28,189.57Z"/>
  </g>
</svg>