<?xml version="1.0" encoding="UTF-8"?>
<svg id="Layer_1" data-name="Layer 1" xmlns="http://www.w3.org/2000/svg" viewBox="0 0 1000 1000">
  <defs>
    <style>
      .cls-1, .cls-2, .cls-3 {
        fill: none;
      }

      .cls-2 {
        stroke-width: 15px;
      }

      .cls-2, .cls-3 {
        stroke: #231f20;
        stroke-miterlimit: 10;
      }

      .cls-3 {
        stroke-width: 10px;
      }
    </style>
  </defs>
  <g>
    <path class="cls-2" d="M334.93,138.6c206.55-14.33,364.32,183.71,306.07,382.37-47.3,161.32-220.06,250.63-380.2,198.5-5.26,9.98-23.27,34.47-23.89,41.42-.43,4.9,14.02,7.66,17,14.04,2.24,4.79,2.06,11-.08,15.8l-59.14,102.75c-4.43,6.13-10.49,8.91-18.08,7.2l-132.23-76.25c-7.48-4.54-8.74-13.64-4.76-20.91,19.78-34.56,39.05-68.85,59.36-102.53,15.76-18.56,27.14,3.42,33.48.13,2.12-1.1,24.24-41.1,24.24-41.1,0,0-6.41-7.14-10.32-10.16C-35.87,467.99,78.64,156.37,334.93,138.6Z"/>
    <path class="cls-1" d="M349.8,168.38c206.44-4.27,339.04,217.96,238.91,398.93-103.96,187.91-381.77,179.52-474.6-13.61-84.71-176.22,40.73-381.3,235.69-385.33Z"/>
    <polygon class="cls-3" points="219.92 787.55 177.09 865.68 72.94 805.2 118.48 730.28 219.92 787.55"/>
    <path class="cls-3" d="M158.52,718.62c7.31-13.61,14.78-26.49,23.5-38.89l50.9,28.69-23.41,38-50.99-27.81Z"/>
    <path class="cls-3" d="M338.65,198.15c188.3-13.46,317.89,191.07,224.01,356.14-84.33,148.28-291.62,161.68-396.62,27.52-117.12-149.64-15.61-370.2,172.61-383.66Z"/>
    <rect class="cls-3" x="245.98" y="335.31" width="208.43" height="208.43"/>
  </g>
  <g id="Placements_Layer">
    <path class="cls-3" d="M722.38,603.28v64.2c0,6.14,10.4,9.84,15.73,10.32,13.23,1.2,48.99,1.74,61.39-.2,4.18-.65,12.21-6.24,12.21-10.12v-64.2h29.78v148.88h-148.88v-148.88h29.78Z"/>
    <path class="cls-3" d="M633.06,781.93v64.2c0,6.14,10.4,9.84,15.73,10.32,13.23,1.2,48.99,1.74,61.39-.2,4.18-.65,12.21-6.24,12.21-10.12v-64.2h29.78v148.88h-148.88v-148.88h29.78Z"/>
    <path class="cls-3" d="M811.71,781.93v64.2c0,6.14,10.4,9.84,15.73,10.32,13.23,1.2,48.99,1.74,61.39-.2,4.18-.65,12.21-6.24,12.21-10.12v-64.2h29.78v148.88h-148.88v-148.88h29.78Z"/>
    <rect class="cls-3" x="752.16" y="603.28" width="29.78" height="44.66"/>
    <rect class="cls-3" x="662.83" y="781.93" width="29.78" height="44.66"/>
    <rect class="cls-3" x="841.48" y="781.93" width="29.78" height="44.66"/>
  </g>
  <g id="Stars_Layer">
    <path class="cls-2" d="M378.41,405.71c14.55,1.81,57.16,2.05,44.12,27.07-4.05,7.78-24.13,24.04-25.48,28.55-3.65,12.27,16.02,47.62-5.42,52.26-15.17,3.28-31.09-17.09-42.23-16.36-10.76.7-25.18,18.44-39.05,16.69-24.31-3.06-3.2-39.75-7.02-52.59-1.33-4.46-21.73-21.38-25.47-28.55-13.1-25.06,29.47-24.91,44.11-27.07,17.57-53.97,38.8-53.93,56.45,0Z"/>
    <path class="cls-3" d="M107.76,37.92c23.67-5.17,20.21,31.63,34.19,45.05s51.42,10.25,43.65,34.7c-3.74,11.79-33.55,12.78-44.58,24.28-12.87,13.41-10.25,51.42-34.7,43.65-11.79-3.74-12.78-33.55-24.28-44.58-13.41-12.87-51.42-10.25-43.65-34.7,3.74-11.79,33.55-12.78,44.58-24.28,10.75-11.2,11.41-41.19,24.79-44.12Z"/>
    <path class="cls-3" d="M703.27,142.13c23.67-5.17,20.21,31.63,34.19,45.05s51.42,10.25,43.65,34.7c-3.74,11.79-33.55,12.78-44.58,24.28-12.87,13.41-10.25,51.42-34.7,43.65-11.79-3.74-12.78-33.55-24.28-44.58-13.41-12.87-51.42-10.25-43.65-34.7,3.74-11.79,33.55-12.78,44.58-24.28s11.41-41.19,24.79-44.12Z"/>
  </g>
</svg>