<?xml version="1.0" encoding="UTF-8"?>
<svg xmlns="http://www.w3.org/2000/svg" viewBox="0 0 1000 1000">
  <defs>
    <style>
      .cls-1 {
        fill: none;
        stroke: #231f20;
        stroke-miterlimit: 10;
        stroke-width: 10px;
      }
    </style>
  </defs>
  <g id="Human_Layer">
    <path class="cls-1" d="M458.21,337.71c9.97,2.46,12.98,12.93,15.55,17.49,4.35,7.72,1.24,38.22-1.28,39.28,0,0-6.61,15.01-14.27,15.14-41.81,9.41-88.17,31.2-131.17,29.14-15.87-.76-33.47-4.58-49.51-5.78l-34.86,129.25c12.22,36.12,37.54,71.66,50.69,106.51,2.08,5.5,4.6,12.26,5.27,18.05,3.13,26.86,2.91,91.14.19,118.33-5.62,55.99-85.66,54.26-91.33,3.92-3.41-30.29,5.28-75.14-.04-102.97-1.05-5.51-11.61-14.84-14.56-20.44l-14.22,34.33c-24.33,36.31-42.67,79.96-66.8,115.9-32.77,48.83-98.27,17.94-85.75-33.28,1.2-4.89,5-11.25,7.38-15.95,17.9-35.35,54.03-81.12,66.56-116.14,9.05-25.28,12.36-55.56,21.78-81.16-13.62-22.73-21.78-44.51-19.07-71.62,3.11-31.14,23.91-99.26,34.24-130.97,36.15-111.03,127.14-47.57,205.56-31.56,31.44-3.38,87.26-24.5,115.64-17.49Z"/>
    <path class="cls-1" d="M259.49,194.4c53.18-6.98,90.82,54.71,57.64,98.45-30.3,39.94-93.61,28.49-108.29-19.66-10.78-35.38,13.89-73.96,50.64-78.79Z"/>
  </g>
  <g id="Ramp_Layer">
    <path class="cls-1" d="M974.75,858.13c-2.15,2.15-7.13,2.23-10.15,2.48H321.1c-11.48-.44-11.98-16.02-2.23-19.89,190.92-94.78,380.4-192.45,570.78-288.29,10.26-5.17,73.85-38.39,78.68-37.91,4.46.44,9.12,6.15,8.93,10.64l-.02,322.82c-.25,3.01-.34,8-2.48,10.15Z"/>
  </g>
  <g id="Gear_Layer">
    <path class="cls-1" d="M473.76,392.13c4.93-10.18,4.62-26.66,0-36.93,2.99-24.22,35.7-14.75,54.09-20.74,18.07-5.89,23.93-25.39,17.92-42.52-4.46-12.72-29.93-29.77-29.22-42.51.46-8.32,32.79-41.46,40.31-43.44,18.03-4.73,35.69,30.06,57.8,30.83,45.84,1.58,27.42-60.28,39.91-71.07,7.8-6.73,51.42-6.97,60.05-1.84,13.26,7.88,6.61,38.82,12.78,53.3,4.27,10.02,18.37,19.36,29.12,19.46,21.9.19,40.56-32.52,54.41-32.84,9.31-.22,40.5,30.49,44.28,39.17,6.86,15.74-23.25,33.74-28.17,48.59-5.23,15.8.86,34.14,16.59,40.68,13.74,5.71,42.17,1.43,50.96,9.29s7.46,45.74,4.38,56.94c-4.38,15.92-28.4,11.27-41.15,13.27-21.96,3.45-38.61,20.46-30.42,43.63,6.11,17.29,35.93,31.03,27.77,50.92-.66,1.6-13.68,16.78-15.92,19.05-5.65,5.72-20.39,19.2-28.1,18.37-20.12-2.16-33.2-43.35-67.24-28.2-27.53,12.26-12.25,49.16-22.45,65.01-6.88,10.69-49.72,8.97-61.2,5.06-17.16-5.85-1.64-50.55-23.36-66.04-10.05-7.17-21.31-8.89-32.71-3.82-15.57,6.93-29.25,32.89-47.41,27.56-5.48-1.61-34.96-30.97-37.25-36.57-7.09-17.35,20.9-33.64,27.13-48.51,7.24-17.28-1.3-37.35-19.32-42.88-19.07-5.86-52.48,5.02-53.57-23.2Z"/>
    <path class="cls-1" d="M681.35,283.85c118.33-6.41,126.86,167.55,20.57,179.98-130.46,15.25-139.99-173.51-20.57-179.98Z"/>
  </g>
</svg>