<?xml version="1.0" encoding="UTF-8"?>
<svg id="Layer_1" data-name="Layer 1" xmlns="http://www.w3.org/2000/svg" viewBox="0 0 1000 1000">
  <defs>
    <style>
      .cls-1 {
        fill: #fff;
        stroke: #231f20;
        stroke-miterlimit: 10;
        stroke-width: 5px;
      }
    </style>
  </defs>
  <path class="cls-1" d="M780.4,740.66v201.99c0,5.18-9.63,8.64-13.86,9.17-85.71,10.91-174.38,30.29-265.68,40.09l-271.03-40.87c-7.91-2.66-9.49-4.22-10.4-12.54v-197.84s-38.72,0-38.72,0c-1.16,0-13.74-3.19-14.71-4.12-3.17-3.01-3.95-10.73-2.16-14.8,19.31-27.92,33.46-62.17,52.64-89.74,3.44-4.95,6.14-10.36,11.86-13.26l272.52-41.42,270.63,41.42c5.73,2.88,8.43,8.31,11.87,13.25,19.19,27.56,33.33,61.83,52.64,89.74,4.12,11.11-3.99,18.92-14.78,18.92h-40.82ZM478.99,604.63l-239.27,35.96c-15.47,23.45-29.81,48.83-43.31,73.86l222.57,9.55,60.01-119.37ZM579.8,723.57l223.63-9.14c-13.21-25.16-27.99-50.37-43.35-73.79l-239.21-36.01,58.94,118.95ZM487.37,966.72v-324.44l-55.87,104.25-189.03-3.78v186.29l244.9,37.68ZM757.38,742.75l-189.03,3.78-55.87-104.25v324.44l244.9-37.68v-186.29Z"/>
  <path class="cls-1" d="M563.22,443.9c-5.5,9.32,6.78,40.62-8.86,59.21-3.87,4.6-11.31,6.52-12.59,8.86-6.05,11.06,2.44,32.94-16.16,41.92-9.44,4.56-44.96,4.34-53.95-1.6-15.61-10.32-7.8-29.76-13.58-40.32-1.28-2.34-8.72-4.26-12.59-8.86-15.55-18.49-3.63-41.06-8.33-58.18-.54-1.98-4.5-2.45-5.99-4.85-6.53-10.47-4.71-26.46-7.16-38.98-14.82-75.72-88.71-105.59-47.27-201.21,55.35-127.73,252.45-94.14,257.25,49.83,2.28,68.34-47.1,90.91-58.13,149.29-2.45,12.97-.58,30.55-7.16,41.07-1.43,2.28-4.92,2.91-5.46,3.83ZM550.17,424.61c-.47-17.56,3.26-36.23,8.87-52.88,14.29-42.48,52.4-68.38,51.9-117.61-1.31-128.92-184.89-152.2-217.16-28.81-19.59,74.93,36.65,99.41,51.45,162.93,2.73,11.73,4.75,24.35,4.45,36.37h100.49ZM539.69,447.62h-79.54v34.54c0,1.14,3.95,6.17,5.45,7.11,5.55,3.48,49.25,3.26,58.49,2.41,5.22-.48,15.6-3.07,15.6-9.52v-34.54ZM516.67,514.6h-33.49c-.36,3.22.88,17.39,2.31,18.61,1.12.96,28.08.9,29.19-1.11,1.18-2.14,2.88-16.6,1.99-17.5Z"/>
  <path class="cls-1" d="M497.29,8.39c10.96-1.98,14.25,6.26,15.19,15.38,1.04,10.13,1.7,54.92-4.21,60.65-4.56,4.42-13.64,4.18-17.65-1.12-4.39-5.81-4.57-54.42-3.12-63.59.86-5.46,4.07-10.28,9.79-11.32Z"/>
  <path class="cls-1" d="M380.07,39.79c4.7-.86,8.74.5,11.95,3.97,3.38,3.66,27.14,45.57,28.83,50.72,4.59,14-8.56,20.98-19.43,13.12-12.96-11.49-31.02-46.39-31.12-56.62-.05-4.98,4.8-10.28,9.76-11.19Z"/>
  <path class="cls-1" d="M614.51,39.79c6.49-1.18,13.88,2.92,14.86,9.57,1.37,9.27-22.94,49.86-30.95,58.24-7.99,8.11-23.68,1.27-20.13-11.65,1.35-4.91,24.93-46.37,28.7-50.94,2.14-2.6,4.02-4.58,7.52-5.22Z"/>
  <path class="cls-1" d="M294.27,125.61c3.66-.67,5.15.16,8.32,1.24,6.52,2.22,40.42,22.12,46.48,26.83,7.03,5.46,11.52,9.06,5.31,17.58-2.68,3.67-6.75,6.46-11.46,5.46-3.87-.82-48.06-26.09-52.22-29.56-8.58-7.16-7.05-19.61,3.56-21.56Z"/>
  <path class="cls-1" d="M710.79,127.93c6.3,6.03,4.73,13.91-1.65,19.24-4.6,3.84-47.77,28.61-52.22,29.56-9.78,2.08-18.78-12.27-11.09-20.17,9.77-10.04,37.82-24.16,52.9-30.38,3.56-1.44,9.25-.92,12.05,1.76Z"/>
  <path class="cls-1" d="M262.81,242.95c7.34-1.64,52.6-1.82,60.19-.41,12.37,2.31,12.3,21.1,2.15,22.97-7.36,1.36-55.54,1.36-62.75-.05-10.71-2.1-11.92-19.77.41-22.52Z"/>
  <path class="cls-1" d="M669.97,262.93c-6.12-6.14-1.98-18.72,6.88-20.38s49.51-1.32,58.41.09c14.41,2.27,14.03,20.55,2.19,22.84-9.83,1.9-45.28,1.07-56.56.13-3.25-.27-8.61-.36-10.92-2.68Z"/>
</svg>